#N canvas 141 146 1920 1016 24;
#X obj 817 15 cnv 33 220 70 empty empty empty 20 12 0 24 #e3c6ff #404040
0;
#X text 827 34 L!ve DJ Syst3m;
#X obj 345 74 netreceive -u 6000;
#X obj 63 74 loadbang;
#X msg 63 120 \; pd dsp 1;
#N canvas -24 57 1920 1016 deck1 0;
#X obj 195 87 inlet;
#X obj 194 466 readsf~ 2;
#X obj 194 615 *~;
#X obj 267 614 *~;
#X obj 194 275 symbol dek1;
#X symbolatom 194 345 15 0 0 0 - - - 0;
#X msg 528 349 1;
#X obj 377 273 bng 33 250 50 0 empty empty empty 0 -17 0 24 #fcfcfc
#000000 #000000;
#X msg 194 401 open \$1.wav;
#X obj 81 411 print;
#X msg 525 548 1;
#X obj 525 476 loadbang;
#X msg 699 299 0;
#X obj 793 292 line;
#X obj 195 171 route load play stop vol;
#X msg 793 245 \$1 500;
#X floatatom 793 330 5 0 0 0 - - - 0;
#X obj 972 585 bng 33 250 50 0 empty empty empty 0 -17 0 24 #fcfcfc
#000000 #000000;
#X obj 631 14 notein;
#X floatatom 631 75 5 0 0 0 - - - 0;
#X obj 643 173 bng 15 250 50 0 empty empty empty 17 7 0 10 #fcfcfc
#000000 #000000;
#X obj 802 38 f;
#X obj 802 76 + 1;
#X obj 802 114 mod 2;
#X obj 802 152 sel 0;
#X obj 631 112 sel 0 1;
#X obj 528 286 del 0.001;
#X obj 193 753 delwrite~ del1L 80;
#X obj 193 792 delread~ del1L 80;
#X obj 478 754 delwrite~ del1R 80;
#X obj 478 793 delread~ del1R 80;
#X obj 192 897 outlet~;
#X obj 508 889 outlet~;
#X connect 0 0 14 0;
#X connect 1 0 2 0;
#X connect 1 1 3 0;
#X connect 2 0 27 0;
#X connect 3 0 29 0;
#X connect 4 0 5 0;
#X connect 5 0 8 0;
#X connect 6 0 1 0;
#X connect 7 0 5 0;
#X connect 8 0 1 0;
#X connect 8 0 9 0;
#X connect 10 0 2 1;
#X connect 10 0 3 1;
#X connect 11 0 10 0;
#X connect 12 0 1 0;
#X connect 13 0 16 0;
#X connect 14 0 4 0;
#X connect 14 1 7 0;
#X connect 14 1 26 0;
#X connect 14 2 12 0;
#X connect 14 3 15 0;
#X connect 15 0 13 0;
#X connect 16 0 3 1;
#X connect 16 0 2 1;
#X connect 17 0 7 0;
#X connect 17 0 26 0;
#X connect 18 0 19 0;
#X connect 19 0 25 0;
#X connect 20 0 21 0;
#X connect 21 0 22 0;
#X connect 22 0 21 1;
#X connect 22 0 23 0;
#X connect 23 0 24 0;
#X connect 24 0 7 0;
#X connect 24 0 26 0;
#X connect 25 0 20 0;
#X connect 25 1 12 0;
#X connect 26 0 6 0;
#X connect 28 0 31 0;
#X connect 30 0 32 0;
#X restore 345 363 pd deck1;
#N canvas -9 1 1916 1002 deck2 1;
#X obj 194 466 readsf~ 2;
#X obj 194 615 *~;
#X obj 267 614 *~;
#X obj 194 275 symbol dek1;
#X symbolatom 194 345 15 0 0 0 - - - 0;
#X msg 528 349 1;
#X obj 377 273 bng 33 250 50 0 empty empty empty 0 -17 0 24 #fcfcfc
#000000 #000000;
#X msg 194 401 open \$1.wav;
#X obj 81 411 print;
#X msg 525 548 1;
#X obj 525 476 loadbang;
#X msg 699 299 0;
#X obj 793 292 line;
#X obj 195 171 route load play stop vol;
#X msg 793 245 \$1 500;
#X floatatom 793 330 5 0 0 0 - - - 0;
#X obj 222 86 inlet;
#X obj 528 286 del 0.01;
#X obj 631 14 notein;
#X floatatom 631 75 5 0 0 0 - - - 0;
#X obj 631 112 sel 16 17;
#X obj 643 173 bng 15 250 50 0 empty empty empty 17 7 0 10 #fcfcfc
#000000 #000000;
#X obj 802 38 f;
#X obj 802 76 + 1;
#X obj 802 114 mod 2;
#X obj 903 156 sel 0;
#X obj 193 753 delwrite~ del2L 80;
#X obj 193 792 delread~ del2L 80;
#X obj 478 754 delwrite~ del2R 80;
#X obj 478 793 delread~ del2R 80;
#X obj 193 830 outlet~;
#X obj 478 831 outlet~;
#X obj 723 204 bng 15 250 50 0 empty empty empty 17 7 0 10 #fcfcfc
#000000 #000000;
#X floatatom 802 152 5 0 0 0 - - - 0;
#X connect 0 0 1 0;
#X connect 0 1 2 0;
#X connect 1 0 26 0;
#X connect 2 0 28 0;
#X connect 3 0 4 0;
#X connect 4 0 7 0;
#X connect 5 0 0 0;
#X connect 6 0 4 0;
#X connect 7 0 0 0;
#X connect 7 0 8 0;
#X connect 9 0 1 1;
#X connect 9 0 2 1;
#X connect 10 0 9 0;
#X connect 11 0 0 0;
#X connect 12 0 15 0;
#X connect 13 0 3 0;
#X connect 13 1 6 0;
#X connect 13 1 17 0;
#X connect 13 2 11 0;
#X connect 13 3 14 0;
#X connect 14 0 12 0;
#X connect 15 0 2 1;
#X connect 15 0 1 1;
#X connect 16 0 13 0;
#X connect 17 0 5 0;
#X connect 18 0 19 0;
#X connect 19 0 20 0;
#X connect 20 0 21 0;
#X connect 20 1 11 0;
#X connect 20 1 32 0;
#X connect 21 0 22 0;
#X connect 22 0 23 0;
#X connect 23 0 22 1;
#X connect 23 0 24 0;
#X connect 24 0 25 0;
#X connect 24 0 33 0;
#X connect 25 0 6 0;
#X connect 25 0 17 0;
#X connect 27 0 30 0;
#X connect 29 0 31 0;
#X restore 506 363 pd deck2;
#X obj 79 385 notein;
#X floatatom 79 423 5 0 0 0 - - - 0;
#X obj 51 570 line;
#X obj 51 608 pow 2;
#X floatatom 51 646 5 0 0 0 - - - 0;
#X obj 386 548 *~;
#X obj 453 549 *~;
#X obj 456 760 dac~, f 5;
#X msg 51 532 1 1000;
#X obj 731 541 line;
#X obj 731 579 pow 2;
#X floatatom 731 617 5 0 0 0 - - - 0;
#X obj 731 383 notein;
#X floatatom 731 421 5 0 0 0 - - - 0;
#X msg 731 503 0 1000;
#X obj 526 539 *~;
#X obj 591 540 *~;
#X obj 79 460 sel 8 24;
#X msg 180 553 0 1000;
#X obj 731 458 sel 8 24;
#X msg 840 511 1 1000;
#X obj 1445 488 sel 0 1;
#X msg 1445 526 1 1000;
#X obj 1445 564 line;
#X msg 1342 527 0 1000;
#X obj 1445 602 pow 2;
#X floatatom 1438 413 5 0 0 0 - - - 0;
#X obj 1438 450 sel 1;
#X obj 1197 171 route deck1 deck2;
#X obj 1381 272 f;
#X obj 1381 310 + 1;
#X obj 1381 348 mod 2;
#X obj 1381 247 bng 15 250 50 0 empty empty empty 17 7 0 10 #fcfcfc
#000000 #000000;
#X obj 895 407 print;
#X obj 1604 345 sel 0 1;
#X msg 1604 383 1 1000;
#X obj 1604 421 line;
#X msg 1702 389 0 1000;
#X obj 1604 459 pow 2;
#X floatatom 1597 270 5 0 0 0 - - - 0;
#X obj 1597 307 sel 1;
#X obj 1540 129 f;
#X obj 1540 167 + 1;
#X obj 1540 205 mod 2;
#X obj 1540 104 bng 15 250 50 0 empty empty empty 17 7 0 10 #fcfcfc
#000000 #000000;
#N canvas -211 99 1920 1016 note0ut 0;
#X obj 161 234 noteout;
#X obj 57 32 loadbang;
#X msg 101 149 0;
#X obj 164 80 bng 15 250 50 0 empty empty empty 17 7 0 10 #fcfcfc #000000
#000000;
#X msg 171 178 100;
#X msg 38 169 16;
#X obj 83 544 noteout;
#X obj 71 346 del 1;
#X msg 73 401 1;
#X msg 139 404 1;
#X msg 100 451 17;
#X obj 67 286 loadbang;
#X obj 874 422 noteout;
#X obj 862 224 del 1;
#X obj 858 164 loadbang;
#X msg 930 282 127;
#X msg 864 279 8;
#X msg 891 329 24;
#X obj 854 91 bng 15 250 50 0 empty empty empty 17 7 0 10 #fcfcfc #000000
#000000;
#X obj 614 479 noteout;
#X msg 615 421 120;
#X obj 755 470 f;
#X obj 755 546 mod 127;
#X obj 755 508 + 1;
#X obj 1014 491 bng 15 250 50 0 empty empty empty 17 7 0 10 #fcfcfc
#000000 #000000;
#X obj 592 728 noteout;
#X obj 1095 767 notein;
#X floatatom 1095 805 5 0 0 0 - - - 0;
#X msg 593 670 88;
#X obj 726 898 noteout;
#X msg 727 840 56;
#X obj 954 537 metro 250;
#X obj 1207 436 noteout;
#X obj 1195 238 del 1;
#X obj 1238 99 loadbang;
#X obj 1187 105 bng 15 250 50 0 empty empty empty 17 7 0 10 #fcfcfc
#000000 #000000;
#X msg 1197 293 112;
#X msg 1111 310 113;
#X msg 1156 341 114;
#X msg 1263 296 127;
#X obj 1373 119 del 1;
#X obj 1373 157 bang;
#X obj 1522 642 noteout;
#X obj 1510 444 del 1;
#X obj 1553 305 loadbang;
#X obj 1502 311 bng 15 250 50 0 empty empty empty 17 7 0 10 #fcfcfc
#000000 #000000;
#X msg 1578 502 127;
#X obj 1688 325 del 1;
#X obj 1688 363 bang;
#X msg 1113 388 115;
#X msg 1426 516 117;
#X msg 1512 499 118;
#X msg 1471 547 119;
#X obj 915 774 pipe 122;
#X obj 805 696 pipe 70;
#X obj 1302 752 noteout;
#X obj 1286 609 random 127;
#X obj 1148 637 + 25;
#X obj 1148 599 random 70;
#X floatatom 1148 675 5 0 0 0 - - - 0;
#X msg 1388 697 0;
#X obj 1264 498 bng 15 250 50 0 empty empty empty 17 7 0 10 #fcfcfc
#000000 #000000;
#X obj 1262 543 metro 250;
#X obj 1388 659 del 240;
#X obj 260 860 noteout;
#X obj 244 717 random 127;
#X obj 106 745 + 25;
#X obj 106 707 random 70;
#X floatatom 106 783 5 0 0 0 - - - 0;
#X msg 346 805 0;
#X obj 220 651 metro 200;
#X obj 346 767 del 200;
#X floatatom 1286 647 5 0 0 0 - - - 0;
#X connect 1 0 3 0;
#X connect 2 0 0 0;
#X connect 3 0 4 0;
#X connect 3 0 2 0;
#X connect 3 0 5 0;
#X connect 4 0 0 1;
#X connect 5 0 0 0;
#X connect 7 0 8 0;
#X connect 7 0 9 0;
#X connect 7 0 10 0;
#X connect 8 0 6 0;
#X connect 9 0 6 1;
#X connect 10 0 6 0;
#X connect 11 0 7 0;
#X connect 11 0 70 0;
#X connect 13 0 16 0;
#X connect 13 0 15 0;
#X connect 13 0 17 0;
#X connect 14 0 13 0;
#X connect 14 0 31 0;
#X connect 15 0 12 1;
#X connect 16 0 12 0;
#X connect 17 0 12 0;
#X connect 18 0 13 0;
#X connect 20 0 19 0;
#X connect 21 0 23 0;
#X connect 22 0 19 1;
#X connect 22 0 53 0;
#X connect 22 0 54 0;
#X connect 23 0 21 1;
#X connect 23 0 22 0;
#X connect 24 0 31 0;
#X connect 24 0 70 0;
#X connect 26 0 27 0;
#X connect 28 0 25 0;
#X connect 30 0 29 0;
#X connect 31 0 21 0;
#X connect 31 0 20 0;
#X connect 31 0 28 0;
#X connect 31 0 30 0;
#X connect 33 0 36 0;
#X connect 33 0 39 0;
#X connect 33 0 37 0;
#X connect 33 0 38 0;
#X connect 33 0 49 0;
#X connect 34 0 33 0;
#X connect 34 0 40 0;
#X connect 34 0 61 0;
#X connect 35 0 33 0;
#X connect 36 0 32 0;
#X connect 37 0 32 0;
#X connect 38 0 32 0;
#X connect 39 0 32 1;
#X connect 40 0 41 0;
#X connect 41 0 33 0;
#X connect 43 0 51 0;
#X connect 43 0 46 0;
#X connect 43 0 50 0;
#X connect 43 0 52 0;
#X connect 44 0 43 0;
#X connect 44 0 47 0;
#X connect 45 0 43 0;
#X connect 46 0 42 1;
#X connect 47 0 48 0;
#X connect 48 0 43 0;
#X connect 49 0 32 0;
#X connect 50 0 42 0;
#X connect 51 0 42 0;
#X connect 52 0 42 0;
#X connect 53 0 29 1;
#X connect 54 0 25 1;
#X connect 56 0 55 1;
#X connect 56 0 72 0;
#X connect 57 0 59 0;
#X connect 58 0 57 0;
#X connect 59 0 55 0;
#X connect 60 0 55 1;
#X connect 61 0 62 0;
#X connect 62 0 56 0;
#X connect 62 0 58 0;
#X connect 62 0 63 0;
#X connect 63 0 60 0;
#X connect 63 0 59 0;
#X connect 65 0 64 1;
#X connect 66 0 68 0;
#X connect 67 0 66 0;
#X connect 68 0 64 0;
#X connect 69 0 64 1;
#X connect 70 0 65 0;
#X connect 70 0 67 0;
#X connect 70 0 71 0;
#X connect 71 0 69 0;
#X connect 71 0 68 0;
#X restore 1740 931 pd note0ut;
#N canvas 152 152 1920 1016 sampler 0;
#X msg 262 385 open samples/Yeah.wav;
#X msg 195 385 1;
#X obj 197 450 readsf~;
#X obj 196 502 *~ 0.5;
#X obj 196 540 dac~;
#X obj 239 178 f;
#X obj 239 216 + 1;
#X obj 239 254 mod 2;
#X obj 239 292 sel 0;
#X obj 233 87 notein;
#X obj 233 125 sel 119;
#X floatatom 374 59 5 0 0 0 - - - 0;
#X msg 630 318 1;
#X obj 674 111 f;
#X obj 674 149 + 1;
#X obj 674 187 mod 2;
#X obj 674 225 sel 0;
#X obj 668 58 sel 118;
#X msg 697 318 open samples/verb1.wav;
#X obj 632 383 readsf~ 2;
#X obj 632 459 dac~;
#X obj 632 421 *~ 0.8;
#X obj 734 423 *~ 0.8;
#X msg 1063 313 1;
#X obj 1107 106 f;
#X obj 1107 144 + 1;
#X obj 1107 182 mod 2;
#X obj 1107 220 sel 0;
#X obj 1101 53 sel 117;
#X msg 1130 313 open samples/verb2.wav;
#X msg 300 804 1;
#X obj 344 597 f;
#X obj 344 635 + 1;
#X obj 344 673 mod 2;
#X obj 344 711 sel 0;
#X obj 338 544 sel 112;
#X msg 367 804 open samples/fade1.wav;
#X obj 375 469 notein;
#X msg 762 804 1;
#X obj 806 597 f;
#X obj 806 635 + 1;
#X obj 806 673 mod 2;
#X obj 806 711 sel 0;
#X obj 764 869 readsf~ 2;
#X obj 764 945 dac~;
#X obj 764 907 *~ 0.4;
#X obj 866 909 *~ 0.4;
#X msg 829 804 open samples/fade2.wav;
#X obj 800 544 sel 113;
#X msg 1242 793 1;
#X obj 1286 586 f;
#X obj 1286 624 + 1;
#X obj 1286 662 mod 2;
#X obj 1286 700 sel 0;
#X obj 1244 858 readsf~ 2;
#X obj 1244 934 dac~;
#X obj 1280 533 sel 114;
#X msg 1309 793 open samples/fade3.wav;
#X msg 1461 552 1;
#X obj 1505 345 f;
#X obj 1505 383 + 1;
#X obj 1505 421 mod 2;
#X obj 1505 459 sel 0;
#X obj 1463 617 readsf~ 2;
#X obj 1463 693 dac~;
#X msg 1528 552 open samples/fade4.wav;
#X obj 1499 292 sel 115;
#X obj 308 850 readsf~;
#X obj 308 964 dac~;
#X obj 308 926 lop~ 15000;
#X obj 308 888 *~ 1;
#X obj 1244 896 *~ 1;
#X obj 1346 898 *~ 1;
#X obj 1463 655 *~ 0.6;
#X obj 1565 657 *~ 0.6;
#X connect 0 0 2 0;
#X connect 1 0 2 0;
#X connect 2 0 3 0;
#X connect 3 0 4 0;
#X connect 3 0 4 1;
#X connect 5 0 6 0;
#X connect 6 0 5 1;
#X connect 6 0 7 0;
#X connect 7 0 8 0;
#X connect 8 0 0 0;
#X connect 8 0 1 0;
#X connect 9 0 10 0;
#X connect 9 0 11 0;
#X connect 9 0 17 0;
#X connect 9 0 28 0;
#X connect 10 0 5 0;
#X connect 12 0 19 0;
#X connect 13 0 14 0;
#X connect 14 0 13 1;
#X connect 14 0 15 0;
#X connect 15 0 16 0;
#X connect 16 0 18 0;
#X connect 16 0 12 0;
#X connect 17 0 13 0;
#X connect 18 0 19 0;
#X connect 19 0 21 0;
#X connect 19 1 22 0;
#X connect 21 0 20 0;
#X connect 22 0 20 1;
#X connect 23 0 19 0;
#X connect 24 0 25 0;
#X connect 25 0 24 1;
#X connect 25 0 26 0;
#X connect 26 0 27 0;
#X connect 27 0 29 0;
#X connect 27 0 23 0;
#X connect 28 0 24 0;
#X connect 29 0 19 0;
#X connect 30 0 67 0;
#X connect 31 0 32 0;
#X connect 32 0 31 1;
#X connect 32 0 33 0;
#X connect 33 0 34 0;
#X connect 34 0 36 0;
#X connect 34 0 30 0;
#X connect 35 0 31 0;
#X connect 36 0 67 0;
#X connect 37 0 35 0;
#X connect 37 0 48 0;
#X connect 37 0 56 0;
#X connect 37 0 66 0;
#X connect 38 0 43 0;
#X connect 39 0 40 0;
#X connect 40 0 39 1;
#X connect 40 0 41 0;
#X connect 41 0 42 0;
#X connect 42 0 47 0;
#X connect 42 0 38 0;
#X connect 43 0 45 0;
#X connect 43 1 46 0;
#X connect 45 0 44 0;
#X connect 46 0 44 1;
#X connect 47 0 43 0;
#X connect 48 0 39 0;
#X connect 49 0 54 0;
#X connect 50 0 51 0;
#X connect 51 0 50 1;
#X connect 51 0 52 0;
#X connect 52 0 53 0;
#X connect 53 0 57 0;
#X connect 53 0 49 0;
#X connect 54 0 71 0;
#X connect 54 1 72 0;
#X connect 56 0 50 0;
#X connect 57 0 54 0;
#X connect 58 0 63 0;
#X connect 59 0 60 0;
#X connect 60 0 59 1;
#X connect 60 0 61 0;
#X connect 61 0 62 0;
#X connect 62 0 65 0;
#X connect 62 0 58 0;
#X connect 63 0 73 0;
#X connect 63 1 74 0;
#X connect 65 0 63 0;
#X connect 66 0 59 0;
#X connect 67 0 70 0;
#X connect 69 0 68 0;
#X connect 70 0 69 0;
#X connect 71 0 55 0;
#X connect 72 0 55 1;
#X connect 73 0 64 0;
#X connect 74 0 64 1;
#X restore 1587 932 pd sampler;
#N canvas -11 -11 1920 1016 effects 1;
#X obj 736 15 inlet~;
#X obj 1083 15 inlet~;
#X obj 792 919 outlet~;
#X obj 990 920 outlet~;
#X obj 503 475 hip~ 2000;
#X obj 415 710 *~;
#X obj 498 653 loadbang;
#X msg 498 691 0;
#X obj 1346 362 hip~ 2000;
#X obj 1258 597 *~;
#X obj 1341 540 loadbang;
#X msg 1341 578 0;
#X obj 416 419 delwrite~ mix_delL 1000;
#X obj 1259 306 delwrite~ mix_delR 1000;
#X obj 1258 454 delread~ mix_delR 375;
#X obj 415 567 delread~ mix_delL 375;
#X obj 503 513 *~ 0.2;
#X obj 1346 400 *~ 0.2;
#X obj 1454 87 inlet;
#X obj 1216 839 lop~ 180;
#X obj 1216 877 *~ 0;
#X obj 620 827 lop~ 180;
#X obj 620 865 *~ 0;
#X obj 117 425 rev1~;
#X obj 164 317 loadbang;
#X obj 125 659 hip~ 250;
#X obj 127 713 *~ 0;
#X floatatom 160 367 5 0 0 0 - - - 0;
#X floatatom 240 378 5 0 0 0 - - - 0;
#X msg 241 357 100;
#X msg 161 346 25;
#X obj 113 538 lop~ 2000;
#X obj 321 154 *~ 0.5;
#X obj 127 751 delwrite~ revdel 1000;
#X obj 126 791 delread~ revdel 45;
#X obj 1454 125 route delay bass verb;
#X connect 0 0 2 0;
#X connect 0 0 12 0;
#X connect 0 0 21 0;
#X connect 0 0 32 0;
#X connect 1 0 3 0;
#X connect 1 0 13 0;
#X connect 1 0 19 0;
#X connect 1 0 32 0;
#X connect 4 0 16 0;
#X connect 5 0 2 0;
#X connect 6 0 7 0;
#X connect 7 0 5 1;
#X connect 8 0 17 0;
#X connect 9 0 3 0;
#X connect 10 0 11 0;
#X connect 11 0 9 1;
#X connect 14 0 8 0;
#X connect 14 0 9 0;
#X connect 15 0 4 0;
#X connect 15 0 5 0;
#X connect 16 0 12 0;
#X connect 17 0 13 0;
#X connect 18 0 35 0;
#X connect 19 0 20 0;
#X connect 20 0 3 0;
#X connect 21 0 22 0;
#X connect 22 0 2 0;
#X connect 23 0 31 0;
#X connect 24 0 30 0;
#X connect 24 0 29 0;
#X connect 25 0 26 0;
#X connect 26 0 2 0;
#X connect 26 0 33 0;
#X connect 27 0 23 1;
#X connect 28 0 23 2;
#X connect 29 0 28 0;
#X connect 30 0 27 0;
#X connect 31 0 25 0;
#X connect 32 0 23 0;
#X connect 34 0 3 0;
#X connect 35 0 9 1;
#X connect 35 0 5 1;
#X connect 35 1 20 1;
#X connect 35 1 22 1;
#X connect 35 2 26 1;
#X restore 418 682 pd effects;
#X obj 345 175 route deck1 deck2 lain fx;
#X obj 986 484 loadbang;
#X connect 2 0 40 0;
#X connect 2 0 55 0;
#X connect 3 0 4 0;
#X connect 5 0 12 0;
#X connect 5 1 13 0;
#X connect 6 0 22 0;
#X connect 6 1 23 0;
#X connect 7 0 8 0;
#X connect 8 0 24 0;
#X connect 9 0 10 0;
#X connect 10 0 11 0;
#X connect 11 0 12 1;
#X connect 11 0 13 1;
#X connect 12 0 54 0;
#X connect 13 0 54 1;
#X connect 15 0 9 0;
#X connect 16 0 17 0;
#X connect 17 0 18 0;
#X connect 18 0 23 1;
#X connect 18 0 22 1;
#X connect 19 0 20 0;
#X connect 20 0 26 0;
#X connect 21 0 16 0;
#X connect 22 0 54 0;
#X connect 23 0 54 1;
#X connect 24 0 15 0;
#X connect 24 1 25 0;
#X connect 25 0 9 0;
#X connect 26 0 21 0;
#X connect 26 1 27 0;
#X connect 27 0 16 0;
#X connect 28 0 29 0;
#X connect 28 1 31 0;
#X connect 29 0 30 0;
#X connect 30 0 32 0;
#X connect 31 0 30 0;
#X connect 32 0 11 0;
#X connect 33 0 28 0;
#X connect 33 0 34 0;
#X connect 35 0 39 0;
#X connect 35 1 51 0;
#X connect 36 0 37 0;
#X connect 37 0 36 1;
#X connect 37 0 38 0;
#X connect 38 0 33 0;
#X connect 39 0 36 0;
#X connect 41 0 42 0;
#X connect 41 1 44 0;
#X connect 42 0 43 0;
#X connect 43 0 45 0;
#X connect 44 0 43 0;
#X connect 45 0 18 0;
#X connect 46 0 41 0;
#X connect 46 0 47 0;
#X connect 48 0 49 0;
#X connect 49 0 48 1;
#X connect 49 0 50 0;
#X connect 50 0 46 0;
#X connect 51 0 48 0;
#X connect 54 0 14 0;
#X connect 54 1 14 1;
#X connect 55 0 5 0;
#X connect 55 1 6 0;
#X connect 55 2 35 0;
#X connect 55 3 54 2;
#X connect 56 0 27 0;
#X connect 56 0 15 0;
